<?xml version="1.0" encoding="utf-8"?>
<!-- Generator: Adobe Illustrator 15.0.0, SVG Export Plug-In . SVG Version: 6.00 Build 0)  -->
<!DOCTYPE svg PUBLIC "-//W3C//DTD SVG 1.1//EN" "http://www.w3.org/Graphics/SVG/1.1/DTD/svg11.dtd">
<svg version="1.1" id="Layer_1" xmlns="http://www.w3.org/2000/svg" xmlns:xlink="http://www.w3.org/1999/xlink" x="0px" y="0px"
	 width="32px" height="32px" viewBox="0 0 32 32" enable-background="new 0 0 32 32" xml:space="preserve">
<g>
	<polygon fill="#3B483B" points="0,13.196 4.635,13.196 1.592,10.153 0,10.153 	"/>
	<rect y="18.893" fill="#3B483B" width="10.055" height="3.045"/>
	<polygon fill="#3B483B" points="5.961,14.522 0,14.522 0,17.565 9.004,17.565 	"/>
	<polygon fill="#3B483B" points="27.365,13.196 32,13.196 32,10.153 30.409,10.153 	"/>
	<rect x="21.943" y="18.893" fill="#3B483B" width="10.057" height="3.045"/>
	<polygon fill="#3B483B" points="22.997,17.565 32,17.565 32,14.522 26.04,14.522 	"/>
</g>
<g>
	<polygon fill="#CC2E2E" points="0,6.44 12.445,18.885 12.445,20.662 11.555,20.662 11.555,21.996 12,21.552 12.889,21.552 
		12.889,22.439 12.445,22.885 13.778,22.885 14.222,23.773 16.028,25.079 17.777,23.773 18.223,22.885 19.557,22.885 19.109,22.439 
		19.109,21.552 20,21.552 20.443,21.996 20.443,20.662 19.557,20.662 19.557,18.885 32,6.44 22.667,6.44 20.443,8.663 
		20.443,10.885 20,11.33 17.777,11.33 17.777,9.552 18.667,8.663 19.109,8.218 18.223,8.218 17.333,9.107 16.889,9.107 
		16.889,8.663 18.223,7.33 18.667,7.33 17.777,6.44 17.193,6.44 16,7.773 14.667,7.773 14.222,8.218 14.222,11.33 12,11.33 
		11.555,10.885 11.555,8.663 9.333,6.44 	"/>
	<path d="M18.223,13.079h-1.334L16,12.19l-0.889,0.889h-1.333l-0.889-0.889v4.889l0.445,0.89l1.333,1.333l0.889,0.444L16,20.189
		l0.445-0.443l0.888-0.444l1.334-1.333l0.442-0.89V12.19L18.223,13.079z M17.777,14.857l-2.667,2.667h-0.889v-0.89l2.667-2.666
		h0.889V14.857L17.777,14.857z"/>
</g>
</svg>
